<svg id="Layer_1" data-name="Layer 1" xmlns="http://www.w3.org/2000/svg" viewBox="0 0 993.11 546.57"><defs><style>.cls-1{fill:#131313;}.cls-2{fill:#fff;}</style></defs><rect class="cls-1" x="83.19" y="45.78" width="826.74" height="455"/><path class="cls-2" d="M495.71,274a43.3,43.3,0,0,0-1.35-6.57c1.94-8.61,1.82-16.63-.39-23.9a42.43,42.43,0,0,0-2.46-6.25c.42-8.82-1.09-16.69-4.52-23.48a41.77,41.77,0,0,0-3.53-5.74c-1.12-8.73-4-16.2-8.52-22.27a43.11,43.11,0,0,0-4.46-5.05c-2.62-8.43-6.74-15.31-12.28-20.51-10.56-9.91-27.51-14.81-42.19-12.19-13.34,2.39-24.17,10.63-35.12,26.73-10.61,15.61-21.09,38.11-34.56,69.35q-7.09,16.48-13.18,31.18l-1.26,2-1.66,1.8-2,1.53L326,281.83l-2.22.7-2.57.34-2.36-.11-2.34-.52-2.6-1.09L312.08,280l-1.93-1.77-1.56-2c-8.53-16.45-16.36-31.16-23.57-44.68-16.52-31-28.46-53.44-34.83-70.86-6.16-16.87-6.75-28.23-1.82-37.44,5-2.38,9.3-4.19,12.46-5.44l-.2-.5a226.55,226.55,0,0,1,27.3-7.59l-.11-.53a225.64,225.64,0,0,1,28.23-2.75l0-.53a223.93,223.93,0,0,1,28.25,2.21l.07-.52a226.3,226.3,0,0,1,27.48,7.07l.16-.48a225.88,225.88,0,0,1,25.81,11.71l.23-.43a225.44,225.44,0,0,1,23.38,16l.88-1.12a226.25,226.25,0,0,0-50.64-30,162,162,0,0,0-43.49-11.87,117.26,117.26,0,0,0-44.85,3.06,113.19,113.19,0,0,0-28.39,9,113.27,113.27,0,0,0-26.35,13.73,112.79,112.79,0,0,0-23.85,18.34,113.15,113.15,0,0,0-20,21.88,113.2,113.2,0,0,0-16.05,25.18,113,113,0,0,0-11.43,27.72,113.14,113.14,0,0,0-6.44,29.24,113.21,113.21,0,0,0-1.25,29.84,112.85,112.85,0,0,0,3.92,29.41,113.23,113.23,0,0,0,9,28.55,113.27,113.27,0,0,0,13.75,26.37,112.58,112.58,0,0,0,18.45,23.92,112.28,112.28,0,0,0,25.52,22.36l.11.07c11.13,7.05,19.53,12.37,29.53,12.37a29.05,29.05,0,0,0,4-.28,28.22,28.22,0,0,0,6.82-1.8c8.22,8.54,16.58,15.13,24.92,19.64,8.56,4.63,16.92,7,24.9,7a39.62,39.62,0,0,0,4.76-.28,41.21,41.21,0,0,0,6.57-1.35,52.28,52.28,0,0,0,11.72,1.37,41.9,41.9,0,0,0,12.2-1.75,40.91,40.91,0,0,0,6.29-2.49c.94.05,1.87.07,2.79.07A45.16,45.16,0,0,0,375.47,435a42.06,42.06,0,0,0,5.7-3.49c8.75-1.13,16.24-4,22.32-8.54a44.21,44.21,0,0,0,5.07-4.47c8.43-2.63,15.31-6.75,20.51-12.29a42.7,42.7,0,0,0,4.2-5.28c7.83-4.05,13.87-9.29,18-15.64a42.68,42.68,0,0,0,3.19-5.89c7-5.35,12.07-11.56,15.06-18.55a42.14,42.14,0,0,0,2.13-6.4c6-6.48,9.89-13.49,11.62-20.89a41.15,41.15,0,0,0,1-6.61c4.77-7.43,7.4-15,7.82-22.6a43.67,43.67,0,0,0-.18-6.75C495.33,289.5,496.61,281.58,495.71,274Zm-1.42.17a43.83,43.83,0,0,1-2.77,20.48A51.41,51.41,0,0,0,488.44,284a84,84,0,0,0,4.11-10q.6-1.8,1.08-3.57A36.7,36.7,0,0,1,494.29,274.21ZM482.9,326.44a74,74,0,0,1-9.93,12.1,53.34,53.34,0,0,0-2.09-11.38A118.14,118.14,0,0,0,482.1,314.4,48.09,48.09,0,0,1,482.9,326.44Zm-12.49,27.28a74.31,74.31,0,0,1-11.86,10.17,52.81,52.81,0,0,0-.08-11.52,118.31,118.31,0,0,0,13.23-10.58A49.2,49.2,0,0,1,470.41,353.72Zm-77.94,66.39a53.62,53.62,0,0,0,5.7-10.05,117.35,117.35,0,0,0,16.77-2.55,48.74,48.74,0,0,1-7.12,9.72A75,75,0,0,1,392.47,420.11ZM198.68,386.56l0,0c-1-.92-2-1.85-3-2.8-.78-.92-1.55-1.86-2.3-2.81a29.56,29.56,0,0,0,13,6.45,29,29,0,0,0,6.13.66c6.57,0,13.32-2.3,21-7.18q5.83,9.86,12.07,18.41A29,29,0,0,1,229.88,404l-1.1,0C217.3,403.55,209.49,396.42,198.68,386.56ZM258.81,110.7c-.88.51-1.72,1-2.54,1.62q-2.47.77-4.94,1.62l.3-.16c1.29-.67,2.59-1.32,3.89-1.93C256.61,111.45,257.71,111.07,258.81,110.7Zm-7.73,6.19a171.3,171.3,0,0,0-15.87,6.47,66.3,66.3,0,0,1,5.84-3.83c4-1.78,8-3.34,12.07-4.71A28.49,28.49,0,0,0,251.08,116.89Zm5.87-3.3A180.42,180.42,0,0,1,298,106.32,220.57,220.57,0,0,0,258,114.61q-1.93.6-3.84,1.23A32.47,32.47,0,0,1,257,113.59Zm215.1,83.25A50.47,50.47,0,0,0,451.51,188c-13.35-2.32-26.35,1.72-42.15,13.11-15.31,11-32.85,28.61-56.19,53.37q-8.24,8.74-15.76,16.88,6.63-10.32,14-21.53c18.63-28.35,32.81-48.63,45.91-62.1,13.29-13.66,25.07-19.76,38.22-19.78h.06a50.51,50.51,0,0,1,33.6,13.59A74.25,74.25,0,0,1,472.05,196.84Zm10.18,27.41a52.61,52.61,0,0,0-8.9-7.36,116.74,116.74,0,0,0,.39-17,48.1,48.1,0,0,1,8.33,8.68A74,74,0,0,1,482.23,224.25Zm-16.89,93.56a45.84,45.84,0,0,1,3.93,8.93q-3,2.94-6.33,5.85c-2.54,2.22-5.21,4.42-8,6.57a41.42,41.42,0,0,0-4.52-7.81q7.86-7.05,14.5-14.23C465.07,317.35,465.21,317.58,465.34,317.81Zm6.29,22a113.72,113.72,0,0,1-13.37,10.92,46,46,0,0,0-2.3-9.09c-.14-.39-.29-.78-.44-1.17q4.38-3.37,8.36-6.85,3.06-2.69,5.85-5.38A51.41,51.41,0,0,1,471.63,339.85Zm-31.77,24.46a45.14,45.14,0,0,1,.64,9.75c-2.57,1.17-5.23,2.29-8,3.36q-4.74,1.83-9.78,3.44a40.83,40.83,0,0,0-1.56-8.88q9.82-3.94,18.55-8.44ZM421.4,383.59a46,46,0,0,1-1.07,9.73c-2.72.7-5.53,1.33-8.43,1.91q-5,1-10.18,1.68a40.45,40.45,0,0,0,0-9.07c6.88-1.45,13.45-3.14,19.66-5.07C421.39,383.05,421.4,383.32,421.4,383.59ZM187.77,373.25c-2.5-3.68-4.79-7.46-6.89-11.29a29.31,29.31,0,0,0,17.58,5.92c7,0,14.73-2.39,24.1-7.31,1.69,3.46,3.42,6.86,5.2,10.17q2.44,4.56,5,8.88c-7.42,4.75-13.94,7-20.26,7a27.82,27.82,0,0,1-5.8-.62C198.88,384.3,193.39,379.75,187.77,373.25ZM153,279.6a28.14,28.14,0,0,0,1.22,2.54c-.06,5.86.16,11.59.66,17.16a64.59,64.59,0,0,1-1.57-6.57C153,288.32,152.87,283.94,153,279.6Zm6.39-58a25.34,25.34,0,0,0,.28,2.87c-2,5.24-3.75,10.7-5.25,16.34a62.43,62.43,0,0,1,.8-6.88C156.39,229.69,157.79,225.58,159.36,221.57Zm35.41-65.76q4.74-4.58,9.81-8.62c-.43.83-.82,1.69-1.18,2.57a170.46,170.46,0,0,0-12.67,11.46C191.92,159.43,193.27,157.64,194.77,155.81Zm21.53-20.15c3.64-2.45,7.36-4.7,11.13-6.77a28.79,28.79,0,0,0-1.64,2.39c-4.87,2.74-9.74,5.78-14.52,9.13A66.07,66.07,0,0,1,216.3,135.66Zm8.18-2q-.34.71-.66,1.44a203.36,203.36,0,0,0-17.91,12.64,29.66,29.66,0,0,1,1.83-3A164.68,164.68,0,0,1,224.48,133.66Zm154,265.13c-6.82.2-13.88.11-21.12-.25,0-1.61,0-3.28-.12-5q10.69-.6,20.9-1.84A46.08,46.08,0,0,1,378.43,398.79Zm-22.59,1.07a44.26,44.26,0,0,1-.89,7c-21.29-3.13-44.3-9.38-68.1-18.54,8.52-15.92,17.47-38.12,29.45-67.84l5.87-14.52c14.93,29.75,25.21,51.84,30.26,69.67a99.06,99.06,0,0,1,2.81,12.92c-2.87.49-5.76.94-8.69,1.37l.21,1.4c2.91-.42,5.8-.88,8.66-1.36q.15,1.17.24,2.31c-9.86.51-20.06.61-30.54.29l0,1.42c3.94.12,7.86.18,11.73.18q9.65,0,19-.48.17,2.48.12,4.83a355.85,355.85,0,0,1-52.37-7l-.29,1.39A354.77,354.77,0,0,0,355.84,399.86Zm-71-10.84c-.27.5-.54,1-.81,1.47q-8.65-4.62-17.42-9.88c11.16-14.2,23.83-34.51,40.78-61.68Q313,309.87,319.2,300l2.12,4.2c-2.19,5.4-4.29,10.62-6.34,15.68-12,29.77-21,52-29.47,67.85l-3-1.18L282,387.9Zm-20.34-8-1.08,1.33q-7.74-6-15.46-12.77c13.47-12.05,29.5-29.88,50.95-53.74,5.73-6.37,11.74-13.05,18.11-20.08.48.93,1,1.88,1.44,2.82-4.29,6.83-8.36,13.36-12.27,19.63-17,27.22-29.67,47.54-40.8,61.68l-2.76-1.68-.74,1.21ZM245.8,369.56l-1.23,1.07q-6.57-7.31-13-15.25c15.35-9.54,34.22-24.3,59.47-44.06,7.63-6,15.67-12.26,24.27-18.92l1,2c-6.52,7.19-12.64,14-18.48,20.49-21.5,23.91-37.54,41.75-51,53.75l-2.44-2.16-.94,1.07ZM229.46,355l-1.44.87q-5.21-8.34-10.15-17.28c16.78-6.73,37.93-18,66.25-33.07,9.32-5,19.2-10.23,29.83-15.82.23.47.47.93.71,1.4-8.68,6.72-16.8,13.07-24.48,19.09-25.31,19.8-44.19,34.57-59.5,44.06l-2-2.52-1.12.88C228.19,353.42,228.82,354.22,229.46,355Zm-65.62-39.39c5.69,4.52,12.75,6.7,22.2,6.7a93.73,93.73,0,0,0,16.2-1.63c1.19-.21,2.4-.45,3.63-.69q3.34,9.74,7.08,19l-.35.13c-9.36,3.42-17,5.12-23.55,5.12a28.38,28.38,0,0,1-15.61-4.3,25.32,25.32,0,0,1-3.37-2.49A201.4,201.4,0,0,1,163.84,315.62Zm7.36-118.09c3.35-5.62,6.89-10.9,10.46-15.78-3.31,5-6.89,10.87-10.43,17.4C171.21,198.61,171.2,198.06,171.2,197.53Zm248.24,148.3q3-3.31,5.8-6.66c.57.54,1.13,1.08,1.67,1.62q-7.31,6.79-15.32,13.45a100,100,0,0,0-9-9.88c-13.55-13.18-33.89-27.4-62.32-46.08q-6.06-4-11.86-7.74l.6-1.49q7.58,3.21,15.57,6.64c31.15,13.42,53.58,23.85,69.13,34.42a99.93,99.93,0,0,1,10.46,8.1q-2.85,3.35-5.81,6.67Zm-32.34,29.1c2.6-1.4,5.16-2.82,7.7-4.26.36.71.7,1.41,1,2.11q-9.17,3.89-18.95,7.4a100.5,100.5,0,0,0-5.07-12.36c-8.22-17-22.47-37.34-42.79-64.61l-3.72-5c.39-1,.79-1.95,1.19-2.94l7.42,7c24.69,23.28,42.21,40.76,53.19,56a98.1,98.1,0,0,1,7.05,11.17c-2.53,1.43-5.11,2.86-7.71,4.26Zm-19.45,9.93c2.8-.93,5.56-1.88,8.3-2.85.24.76.45,1.52.65,2.27q-9.71,2.24-20,4a99.33,99.33,0,0,0-2.85-13.06c-5.13-18.17-15.64-40.65-30.91-71l1.78-4.4,3.21,4.29c20.27,27.21,34.48,47.46,42.65,64.38a98.82,98.82,0,0,1,5,12.22c-2.74,1-5.52,1.92-8.32,2.85Zm-151.8-47-1.58.61q-3.68-9.11-7-18.77c17.68-3.71,40.47-11.13,71-21.06,10.75-3.5,22.2-7.23,34.56-11.17l.5,1c-10.63,5.58-20.52,10.85-29.85,15.82-28.37,15.11-49.54,26.39-66.27,33.07-.52-.94-1-1.89-1.54-2.84l-1.25.68C214.87,336.08,215.36,337,215.85,337.87Zm-10.07-22.59-1.35.45,1,2.91c-1.16.23-2.3.45-3.42.65a92.65,92.65,0,0,1-15.93,1.61c-9.91,0-17.07-2.46-22.73-7.57a231.08,231.08,0,0,1-3.85-24.18c7.24,7.09,18.12,10.18,35.33,10.18H195c18.63,0,43.8-3.58,78.63-8.5,11.84-1.67,24.47-3.45,38.18-5.29.11.22.22.44.34.66-12.28,3.91-23.66,7.62-34.35,11.1-30.55,9.95-53.35,17.37-71,21.05C206.47,317.33,206.12,316.31,205.78,315.28Zm123.34-30.19-.43-.1.21-.34.4,0Zm1.68-.35q10.4.51,21.57,1.15c33.88,2,58.54,4.1,76.73,8.71a90.93,90.93,0,0,1,16,5.52Q440.61,309,435.38,318a101.3,101.3,0,0,0-11.83-6.22c-17.24-7.75-41.21-14.16-74.32-22q-9.64-2.28-18.7-4.34Zm-18.11-.82.05.06-.13,0,0-.09Zm1,1.36.25.33-.46.15-.22-.42Zm1.62-.21.09,0,.08.07-.1,0Zm11.92-.5,0,.08-.11,0,.06-.06Zm-5.86,3.12.62.4c-.19.2-.37.41-.55.61l-.63-.58Zm-1.62-.55-.34-.31.34-.18.35.22Zm2.81-.37.36-.28.38.16L323,287Zm.64,2.1.93.6-.69,1.09-1-.89Zm1-1.06.52-.57.67.28c-.15.25-.31.5-.47.75Zm1.54-1.69.26-.28.4.09-.24.37Zm-1.34-.64-.05.06-.11,0,.06-.05Zm-3,.38-.12.09-.09-.06.13-.06Zm-3-.1-.06,0-.07-.06.07,0Zm-1.69.47.29.27-.41.21-.27-.35Zm1.4,1.29.53.5-.67.52-.51-.68Zm1.59,1.48.81.75-.89,1-.79-1.05Zm1.85,1.72,1.15,1.07-1,1.64-1.16-1.55Zm2.21,2,1.6,1.49-1.08,2.65-1.7-2.27Zm.77-1.22.82-1.3,1.3.84-.72,1.77Zm1.58-2.51.61-1,1,.42-.51,1.25Zm1.38-2.18c.13-.2.26-.4.38-.6l.7.16c-.11.26-.21.51-.32.76Zm2.28-3.59.06-.09h.07l0,.11ZM166.09,217.35c1.6-4.2,3.22-8.07,4.77-11.55,2.72,9.81,10.65,18,25.68,26.61,16.14,9.29,39.71,18.79,72.33,32,12.21,4.92,25.34,10.21,39.64,16.12-14.11-3.1-27.11-5.85-39.25-8.43-34.39-7.28-59.23-12.54-76.66-18.86-16.88-6.12-25.95-13-29.84-22.64,1.4-5.38,2.75-9.81,3.82-13Zm26,37.18c17.53,6.35,42.41,11.62,76.85,18.91,12.7,2.69,26.33,5.58,41.18,8.85l.05.1c-14.25-.59-27.38-1-39.65-1.46-35.1-1.21-60.46-2.07-78.71-5.27-17.69-3.09-27.81-8.27-33.31-17.13.44-5.54,1-10.13,1.5-13.49l-.51-.08c.85-4.4,1.77-8.48,2.68-12.18C166.58,242,175.81,248.62,192.11,254.53Zm-33.76,6.3c5.91,8.3,16.14,13.24,33.23,16.23,18.35,3.21,43.75,4.08,78.92,5.29,12.49.42,25.88.88,40.43,1.49l.19.36c-13.52,1.81-26,3.57-37.69,5.22-34.78,4.92-59.91,8.47-78.44,8.49-17.92,0-28.78-3.3-35.75-11.05-.53-5.55-.77-10.19-.87-13.59l-.56,0C157.89,268.81,158.08,264.63,158.35,260.83ZM314.18,287l.71-.22.43.56-.76.41C314.43,287.54,314.3,287.29,314.18,287Zm2,1.49.67.88-1.06.81c-.2-.39-.4-.78-.59-1.17Zm1.52,2,1,1.26-1.31,1.44-.89-1.73Zm1.82,2.41,1.33,1.76-1.53,2.44L318,294.6Zm2.25,3,1.89,2.51c-.56,1.36-1.1,2.71-1.64,4-.66-1.29-1.3-2.58-1.95-3.85Zm66.46,61.49c-11.05-15.32-28.61-32.86-53.37-56.19q-4-3.75-7.82-7.34l.83-2q5.69,3.69,11.63,7.59c28.36,18.63,48.64,32.8,62.11,45.91a97.75,97.75,0,0,1,8.88,9.77q-3.36,2.76-6.81,5.5l.88,1.11q3.45-2.72,6.79-5.49c.48.64.93,1.27,1.37,1.89q-8.34,5.41-17.35,10.55A100.44,100.44,0,0,0,388.24,357.42Zm24.22-2.06c5.35-4.45,10.51-9,15.43-13.57q1.71,1.8,3.18,3.61-8.16,6.12-17.14,12C413.45,356.72,413,356,412.46,355.36Zm2.07-26.42c-15.64-10.64-38.14-21.11-69.37-34.55q-8-3.45-15.59-6.65c.14-.33.28-.67.41-1q9.16,2.08,18.93,4.4c33,7.81,56.92,14.19,74,21.9a96.86,96.86,0,0,1,11.7,6.15q-2.21,3.75-4.53,7.53l1.2.75q2.32-3.77,4.53-7.52c.67.43,1.32.88,1.95,1.32q-6,7.94-12.7,15.86A99.55,99.55,0,0,0,414.53,328.94Zm22.05-10.22q5.25-9,9.83-18,2.23,1.11,4.23,2.32c-3.7,5.67-7.7,11.38-12,17.08C438,319.66,437.29,319.19,436.58,318.72Zm10.47-19.26q4.83-9.56,8.87-19a44,44,0,0,1,6.27,3.24c-3.24,6-6.84,12.07-10.77,18.16C450,301,448.58,300.22,447.05,299.46Zm-1.26-.61a92.3,92.3,0,0,0-16.34-5.63c-18.3-4.64-43-6.78-77-8.74q-10.92-.64-21.07-1.13c.05-.13.1-.26.16-.39q11.19-1.43,23.32-2.85c33.7-4,58.35-6.13,77.09-4.76,8.95.66,16.41,2.15,22.68,4.58Q450.63,289.29,445.79,298.85Zm-13.74-24.91c-18.85-1.39-43.57.79-77.35,4.76q-11.73,1.38-22.54,2.75l0-.08c7.69-2.39,15.72-4.85,24.15-7.37,32.48-9.75,56.37-16.18,75.08-18.07,12.83-1.3,22.91-.39,31.22,2.95q-3.22,9.71-7.46,19.74C448.78,276.12,441.17,274.61,432.05,273.94ZM269.4,263c-32.56-13.13-56.09-22.62-72.15-31.86-15.56-9-23.3-17.28-25.44-27.49,2.29-5,4.39-9.16,6-12.15l-.47-.25c2.3-3.84,4.56-7.36,6.68-10.52,1,10.14,7.38,19.54,20.68,30.67,14.29,12,35.87,25.43,65.74,44.06,11.07,6.91,23,14.33,35.89,22.54C293.08,272.58,280.84,267.65,269.4,263Zm-83.85-88.78c.07-.52.15-1,.25-1.55,4.22-4.91,8.57-9.44,12.9-13.6C194.58,163.46,190.1,168.54,185.55,174.26Zm-24.15,51.9c-.11-.53-.22-1-.3-1.58,2.32-6.15,4.91-12,7.6-17.45C166.29,212.69,163.76,219.1,161.4,226.16Zm-5,28.29c-.2-.49-.39-1-.56-1.46,1.19-6.27,2.67-12.3,4.31-18C158.81,240.75,157.49,247.31,156.43,254.45Zm.35,8.58c-.35,6-.53,12.78-.33,20.15-.29-.46-.57-.91-.82-1.38C155.71,275.31,156.13,269,156.78,263Zm4.69,48.45c-.38-.42-.75-.84-1.1-1.27-1.08-6.68-1.77-13.21-2.16-19.44C158.9,296.94,159.93,304,161.47,311.48Zm11.21,29.65c9.92,6.24,22,6,40.41-.7l.4-.14c2.67,6.54,5.5,12.89,8.45,19-14.15,7.45-24.48,9-33.9,5.12a27.66,27.66,0,0,1-9-6A165.7,165.7,0,0,1,171,340C171.52,340.37,172.09,340.75,172.68,341.13Zm42.13-1.34c.57-.21,1.15-.44,1.73-.67q5,9,10.27,17.47l-.35.21c-1.12.64-2.22,1.26-3.29,1.84Q218.81,349.58,214.81,339.79Zm142.28,52.36c-.08-.81-.16-1.63-.26-2.47q10.29-1.77,20.12-4c.39,1.59.71,3.16.94,4.7C371.16,391.16,364.21,391.76,357.09,392.15Zm21.25-6.83c6.94-1.63,13.71-3.44,20.25-5.43a45,45,0,0,1,1.56,6.86q-10,2.07-20.84,3.42C379.07,388.59,378.74,387,378.34,385.32ZM378,384c-.22-.8-.45-1.61-.7-2.43q9.82-3.54,19.11-7.47,1,2.28,1.76,4.51Q388.43,381.53,378,384Zm19.72-10.46q9.82-4.22,19-8.85a44.38,44.38,0,0,1,2.73,6.53q-9.5,3.76-19.88,7Q398.75,375.86,397.71,373.5Zm-.58-1.28c-.35-.74-.71-1.49-1.1-2.25q9-5.18,17.49-10.64c.92,1.37,1.75,2.73,2.5,4.1Q407,368,397.13,372.22Zm17.59-13.67q9-5.88,17.2-12.05a44,44,0,0,1,3.82,5.92q-8.73,5.37-18.44,10.36Q416.13,360.67,414.72,358.55Zm18.34-12.92q2.12-1.59,4.17-3.21,6.36-5,12.13-10.12a39.28,39.28,0,0,1,4.43,7.76q-7.85,6-16.84,11.6A45.29,45.29,0,0,0,433.06,345.63Zm-.85-1.09c-1-1.25-2.11-2.49-3.28-3.72q7.79-7.32,14.8-14.81a46.23,46.23,0,0,1,4.79,5.18Q440.87,338,432.21,344.54ZM428,339.81c-.58-.57-1.17-1.15-1.79-1.73,4.48-5.3,8.76-10.64,12.79-16q2,1.46,3.75,3Q435.74,332.51,428,339.81ZM439.81,321q6.4-8.56,12-17.17a45.27,45.27,0,0,1,5.6,4.26q-6.35,8-13.75,16Q441.85,322.45,439.81,321Zm12.78-18.37c1-1.48,1.91-3,2.83-4.45q4.27-6.9,7.95-13.69a39.73,39.73,0,0,1,6.81,5.79q-5.34,8.32-11.88,16.69A45.3,45.3,0,0,0,452.59,302.58ZM464,283.18q5-9.31,8.77-18.34l.6.49a45.78,45.78,0,0,1,6.77,7.06c-1.21,2.53-2.53,5.1-3.95,7.68q-2.46,4.46-5.27,8.92A40.61,40.61,0,0,0,464,283.18Zm-1.17-.75a44.76,44.76,0,0,0-6.4-3.29q1-2.44,2-4.89,3-7.51,5.44-14.83a39.34,39.34,0,0,1,7.73,4.53Q467.86,273.05,462.87,282.43Zm1.5-24.37q3.28-10,5.46-19.61l.68.37a45.48,45.48,0,0,1,7.9,5.81c-.75,2.71-1.61,5.48-2.57,8.29q-1.63,4.79-3.63,9.67A40.69,40.69,0,0,0,464.37,258.06Zm-1.29-.54c-8.5-3.39-18.77-4.33-31.81-3-18.82,1.91-42.78,8.35-75.34,18.13q-11.58,3.47-22.2,6.77,10.95-5.66,23-11.71C387,252.45,409.46,242,427.52,236.87c17.28-4.89,30.06-4.63,41,.89Q466.37,247.42,463.08,257.52Zm-35.95-22c-18.17,5.14-40.66,15.64-71.06,30.93-7.17,3.6-14,7.1-20.61,10.49q9.78-7.46,20.53-15.47c27.2-20.28,47.46-34.48,64.37-42.66,17.16-8.29,30.32-10,42.68-5.52a46,46,0,0,1,8.79,4.33c-.27,2.8-.64,5.66-1.09,8.59q-.78,5-1.89,10.14C457.63,230.79,444.62,230.55,427.13,235.5ZM271.2,254.3c-29.82-18.61-51.37-32.05-65.59-44-13.77-11.52-20-21.06-20.29-31.49,3.16-4.58,6-8.28,8.05-11l-.41-.32c2.95-3.4,5.79-6.49,8.44-9.23-.81,10.16,3.85,20.54,15,33.83,12,14.26,30.93,31.28,57.12,54.82,9.77,8.78,20.26,18.22,31.65,28.63C293,267.9,281.73,260.87,271.2,254.3ZM204,152.21c.17-.55.36-1.08.56-1.6,5.24-4.28,10.56-8.14,15.77-11.59C215.36,142.7,209.8,147.1,204,152.21Zm-1.53.13c-.16.53-.29,1.07-.42,1.62-4.23,3.85-8.54,8.06-12.78,12.63-.92,1-1.82,2-2.71,3a28.65,28.65,0,0,1,1.34-3.43A165.27,165.27,0,0,1,202.51,152.34Zm-18,19.67Q178.8,178.66,174,185.5a65.43,65.43,0,0,1,3.24-6.41c2.52-3.47,5.2-6.78,8-9.94A26.65,26.65,0,0,0,184.49,172Zm-.43,2.75c-.06.52-.1,1-.13,1.57-3.49,4.51-7,9.39-10.35,14.62-.73,1.12-1.44,2.25-2.13,3.37a29.25,29.25,0,0,1,.69-3.45A165.78,165.78,0,0,1,184.06,174.76Zm-14.27,22.31q-4.48,7.59-8,15.22a65.91,65.91,0,0,1,1.93-6.48c1.94-4,4.06-7.84,6.33-11.56A26.36,26.36,0,0,0,169.79,197.07Zm.05,2.79c0,.52.09,1.06.16,1.6a204.41,204.41,0,0,0-9.21,20,26.78,26.78,0,0,1,.07-3.58A165.32,165.32,0,0,1,169.84,199.86Zm-9.68,27.25c.13.51.27,1,.43,1.54-1.74,5.43-3.36,11.22-4.73,17.28-.31,1.33-.58,2.65-.85,4a27.69,27.69,0,0,1-.54-3.52A164.36,164.36,0,0,1,160.16,227.11ZM154.39,253q-1.62,8.67-2.34,17c-.25-2.16-.37-4.41-.41-6.79.46-4.41,1.13-8.76,2-13A27.59,27.59,0,0,0,154.39,253Zm1,2.6c.21.47.43.94.67,1.41-.77,5.65-1.36,11.63-1.66,17.85-.07,1.35-.11,2.7-.15,4a28.82,28.82,0,0,1-1.13-3.32A167.18,167.18,0,0,1,155.39,255.64Zm.22,28.86c.29.44.6.87.93,1.3a207,207,0,0,0,2,21.85,28.09,28.09,0,0,1-1.7-3.1A167.47,167.47,0,0,1,155.61,284.5ZM159,310.82c.9,5.48,2.08,11.06,3.58,16.64a67,67,0,0,1-2.71-6.3c-1-4.22-1.88-8.44-2.52-12.65Q158.16,309.7,159,310.82Zm1.79,2.06c.38.39.77.78,1.18,1.16,1.21,5.57,2.71,11.38,4.54,17.32.41,1.3.82,2.58,1.25,3.86a29,29,0,0,1-2.3-2.88A163.89,163.89,0,0,1,160.83,312.88Zm8,25.37a170.49,170.49,0,0,0,6.54,16,65.5,65.5,0,0,1-3.91-5.93c-1.79-4-3.36-8.08-4.74-12.16C167.39,336.89,168.09,337.58,168.84,338.25Zm54.95,21.67c1.1-.6,2.23-1.23,3.38-1.89l.39-.23q5.66,9,11.62,17.25-2.72,2.1-5.28,3.81Q228.64,369.86,223.79,359.92Zm5-2.84,1.59-.95q6.46,8,13.14,15.41l-.31.27c-1,.83-2,1.62-2.91,2.38Q234.4,366,228.77,357.08ZM244.1,372.9l.35-.3q7.14,7.86,14.45,15-2.31,2.55-4.54,4.68-6.75-8-13.25-16.91C242.09,374.57,243.09,373.75,244.1,372.9Zm1.42-1.21,1.36-1.19q7.77,6.76,15.63,12.91c-.08.1-.17.2-.25.31-.82,1-1.63,1.91-2.43,2.82Q252.62,379.51,245.52,371.69Zm17.83,12.94.28-.35q8.39,6.5,16.82,12.23-1.83,2.88-3.63,5.35-8-6.64-16-14.33C261.67,386.6,262.51,385.64,263.35,384.63Zm1.18-1.43,1.19-1.47q8.8,5.31,17.61,10l-.21.36c-.65,1.13-1.29,2.21-1.94,3.26Q272.87,389.66,264.53,383.2Zm19.82,9.58.23-.4a324.15,324.15,0,0,0,30.51,14.15,240.31,240.31,0,0,0,35.77,11.34l-.39.71a45.42,45.42,0,0,1-5.8,7.9q-4.07-1.12-8.27-2.56c-17.32-5.92-35.58-15.34-54-27.79C283,395.05,283.69,393.94,284.35,392.78Zm.93-1.63.89-1.61A343,343,0,0,0,339.1,405.4q7.93,1.67,15.55,2.78a39.91,39.91,0,0,1-3.1,8.4C330.77,411.93,308.32,403.3,285.28,391.15Zm70.78,17.24q10.47,1.49,20.25,2l-.26.75a45.76,45.76,0,0,1-4.32,8.77q-4.19-.4-8.58-1.09-5-.78-10.17-1.9A40.91,40.91,0,0,0,356.06,408.39Zm.31-1.37a45.94,45.94,0,0,0,.89-7.09c1.77.09,3.53.16,5.27.22q4.43.14,8.72.14,3.6,0,7.11-.11a39.58,39.58,0,0,1-1.6,8.79C370.18,408.66,363.37,408,356.37,407Zm23.42-6.88c7-.23,13.81-.76,20.27-1.58,0,.26-.07.51-.12.76a45.33,45.33,0,0,1-2.74,9.39c-2.8.22-5.67.36-8.63.42q-5.07.09-10.34-.11A41.52,41.52,0,0,0,379.79,400.14Zm.07-1.4a45.11,45.11,0,0,0-.36-7.19c1.76-.22,3.51-.46,5.24-.71q8-1.15,15.58-2.71a40.23,40.23,0,0,1-.05,9Q390.46,398.39,379.86,398.74Zm21.68-12.29a45.41,45.41,0,0,0-1.59-7q2.54-.8,5-1.6,7.69-2.53,14.85-5.36a40,40,0,0,1,1.5,8.8Q411.91,384.27,401.54,386.45Zm19.2-15.81A46.46,46.46,0,0,0,418,364c1.58-.81,3.16-1.63,4.71-2.47q7.15-3.82,13.72-7.87a39.44,39.44,0,0,1,3,8.45Q430.61,366.67,420.74,370.64Zm16.85-17.73q9-5.58,16.75-11.5c.1.25.2.5.29.76a45.75,45.75,0,0,1,2.33,9.51c-2.32,1.59-4.74,3.15-7.28,4.68q-4.32,2.61-9,5.07A40.86,40.86,0,0,0,437.59,352.91Zm12-22.68A45.15,45.15,0,0,0,444.7,325c1.21-1.31,2.4-2.61,3.57-3.92q5.4-6,10.17-12.06a39.16,39.16,0,0,1,5.71,6.89C459.69,320.72,454.83,325.52,449.58,330.23Zm9.75-22.36q6.53-8.33,11.83-16.56l.51.59a45.56,45.56,0,0,1,5.44,8.15q-2.44,3.42-5.23,6.87-3.18,4-6.74,7.88A40.91,40.91,0,0,0,459.33,307.87ZM472.75,291c-.26-.31-.52-.62-.79-.92,2-3.11,3.81-6.22,5.51-9.3,1.31-2.38,2.54-4.74,3.67-7.08a51.91,51.91,0,0,1,5.73,10.21A114,114,0,0,1,478,298.75,46.34,46.34,0,0,0,472.75,291Zm9.08-18.75A117.4,117.4,0,0,0,488,256.42a48.76,48.76,0,0,1,4.86,11,75,75,0,0,1-5.19,14.76A52.64,52.64,0,0,0,481.83,272.23Zm-1-1.27a46.17,46.17,0,0,0-6.53-6.72l-.94-.76q2.1-5.12,3.81-10.1,1.32-3.88,2.39-7.65a52,52,0,0,1,7.41,9A114.56,114.56,0,0,1,480.85,271ZM480,244.18a116.08,116.08,0,0,0,3.33-16.62,48.91,48.91,0,0,1,6.7,10A75.33,75.33,0,0,1,487.49,253,53.33,53.33,0,0,0,480,244.18Zm-1.18-1.08a45.92,45.92,0,0,0-7.62-5.51l-1.06-.59c.78-3.59,1.45-7.13,2-10.59.42-2.7.77-5.34,1-7.92a51.61,51.61,0,0,1,8.88,7.62A114.34,114.34,0,0,1,478.83,243.1ZM472,216a46,46,0,0,0-8.45-4.1c-12.74-4.61-26.24-2.89-43.77,5.58-17,8.23-37.34,22.48-64.61,42.8q-9.63,7.17-18.43,13.87,8.32-9,17.5-18.76c23.28-24.7,40.76-42.21,56-53.19,15.46-11.15,28.13-15.11,41.08-12.86a49.26,49.26,0,0,1,20.93,9.33A113.76,113.76,0,0,1,472,216ZM274.5,246c-26.15-23.51-45-40.5-57-54.69C206,177.52,201.52,167,203,156.7c3.89-3.95,7.27-7.1,9.8-9.36l-.35-.38c3.49-2.84,6.83-5.39,9.91-7.63-2.56,9.87.23,20.9,8.93,35.92,9.34,16.14,25,36.17,46.72,63.9,8.07,10.32,16.75,21.41,26.13,33.6C293.53,263.06,283.69,254.22,274.5,246ZM226.05,133.71c.25-.47.5-.94.77-1.39,5.69-3.18,11.38-6,16.9-8.4C238.36,126.59,232.35,129.85,226.05,133.71Zm2.54-4A30.32,30.32,0,0,1,231,127a165.8,165.8,0,0,1,18.38-8c-.32.44-.63.89-.93,1.36A207,207,0,0,0,228.59,129.73Zm3.76-5.93c-.8.67-1.55,1.36-2.27,2.08q-2.36,1.22-4.63,2.49l.32-.25q1.78-1.37,3.58-2.64C230.34,124.9,231.34,124.35,232.35,123.8Zm-23.84,17.56c-.66.79-1.28,1.6-1.85,2.42q-2.11,1.6-4.19,3.3l.29-.32,0,0q1.46-1.58,2.94-3.09C206.65,142.86,207.58,142.1,208.51,141.36Zm-20.43,21.42c-.49.87-1,1.74-1.36,2.62-1.15,1.24-2.29,2.5-3.4,3.79l0-.05.07-.1c.79-1.26,1.61-2.48,2.44-3.68Q187,164.06,188.08,162.78Zm-16.3,24.47c-.37,1-.69,2-1,3-1,1.52-1.93,3-2.83,4.57l.17-.43v0c.57-1.37,1.16-2.73,1.78-4.06C170.54,189.29,171.15,188.27,171.78,187.25Zm-11.94,27.31c-.17,1-.31,2-.39,3-.68,1.62-1.33,3.23-1.94,4.85l.07-.35v0c.31-1.4.65-2.79,1-4.16C159,216.73,159.41,215.64,159.84,214.56Zm-7,28.7c0,1,0,2.06.13,3.07q-.59,2.61-1.1,5.28l0-.6c.06-1.41.15-2.81.26-4.19C152.42,245.62,152.64,244.44,152.89,243.26ZM151,272.84c.18,1,.4,2,.65,2.94-.08,1.77-.14,3.53-.16,5.28l-.06-.46v0q-.28-2.1-.48-4.17C151,275.21,151,274,151,272.84Zm3.3,29.39q.52,1.42,1.14,2.76c.22,1.72.47,3.43.74,5.12l-.06-.19,0-.17q-.66-2.07-1.23-4.14C154.66,304.48,154.48,303.36,154.32,302.23Zm8.29,28.24q.76,1.32,1.62,2.55.77,2.5,1.64,5l-.17-.32c-.67-1.28-1.3-2.57-1.91-3.85C163.38,332.73,163,331.6,162.61,330.47ZM175.75,357c.68.82,1.39,1.59,2.13,2.33q1.25,2.4,2.55,4.73l-.39-.5c-.9-1.17-1.76-2.35-2.6-3.53C176.86,359,176.29,358,175.75,357Zm58.87,23.08c1.75-1.17,3.54-2.46,5.39-3.89q3.41,4.67,6.88,9.1,3.21,4.08,6.45,7.9a54.12,54.12,0,0,1-6.62,5.29Q240.45,389.92,234.62,380.09Zm19.65,14.19q7.44,8.69,15,16a31.59,31.59,0,0,1-8.29,5.48c-1.44-1.52-2.89-3.11-4.33-4.75q-4.66-5.36-9.14-11.38A56.58,56.58,0,0,0,254.27,394.28Zm1-.95c1.52-1.45,3.07-3,4.64-4.77,2.77,2.67,5.55,5.27,8.35,7.77q3.86,3.44,7.71,6.64a54.61,54.61,0,0,1-5.62,6.36Q262.71,402,255.28,393.33Zm21.8,10.55a209.87,209.87,0,0,0,31.48,21.64,128.31,128.31,0,0,0,24.35,10.55,49,49,0,0,1-11,4.88c-12.31-2.84-25.76-9.93-39.48-21q-5.53-4.47-11-9.64A55.89,55.89,0,0,0,277.08,403.88Zm32.16,20.4a209,209,0,0,1-31.33-21.52c1.24-1.68,2.48-3.49,3.72-5.45q4.77,3.21,9.56,6.19c15.44,9.57,30.5,16.89,44.75,21.76,2.58.89,5.13,1.68,7.63,2.39a51.7,51.7,0,0,1-9,7.39A124.64,124.64,0,0,1,309.24,424.28Zm35.88,3.8a116.14,116.14,0,0,0,16.64,3.34,48.5,48.5,0,0,1-9.95,6.67,74.45,74.45,0,0,1-15.46-2.55A52.19,52.19,0,0,0,345.12,428.08Zm1.08-1.18a46.36,46.36,0,0,0,5.5-7.61c.21-.36.41-.73.61-1.1,3.6.79,7.15,1.46,10.62,2,2.7.42,5.33.76,7.92,1a52.29,52.29,0,0,1-7.65,8.9A114.54,114.54,0,0,1,346.2,426.9Zm26.25-5.52q5.9.54,11.4.54c1.89,0,3.74-.05,5.56-.14a49.11,49.11,0,0,1-8.71,8.36,75.7,75.7,0,0,1-15.63.17A53.41,53.41,0,0,0,372.45,421.38Zm.86-1.36a47,47,0,0,0,4.08-8.42c.14-.39.27-.78.4-1.18q3.78.16,7.44.16c1.13,0,2.26,0,3.37,0q4.08-.09,8-.36a51.61,51.61,0,0,1-6,10.06A113.25,113.25,0,0,1,373.31,420Zm25.47-11.44a46.39,46.39,0,0,0,2.56-9c.07-.4.14-.79.19-1.19q5.48-.74,10.65-1.75,4-.8,7.78-1.74a51.62,51.62,0,0,1-4.12,10.92A113.62,113.62,0,0,1,398.78,408.58Zm22.76-14.1A116.6,116.6,0,0,0,437.63,389a48.45,48.45,0,0,1-5.3,10.78,75.16,75.16,0,0,1-14.64,5.52A53,53,0,0,0,421.54,394.48Zm.34-1.57a47.76,47.76,0,0,0,.94-9.32c0-.42,0-.84,0-1.26q5.28-1.68,10.21-3.58,3.83-1.49,7.4-3.08a52.06,52.06,0,0,1-2.17,11.52A114.64,114.64,0,0,1,421.88,392.91Zm20-17.91a117.34,117.34,0,0,0,14.87-8.13,48.65,48.65,0,0,1-3.37,11.59,75,75,0,0,1-13.43,8A53.6,53.6,0,0,0,441.87,375Zm.07-1.6a46.73,46.73,0,0,0-.68-9.34c-.07-.4-.15-.8-.23-1.2,3.25-1.71,6.39-3.47,9.39-5.28,2.33-1.41,4.57-2.85,6.73-4.3A52.36,52.36,0,0,1,457,365,114.27,114.27,0,0,1,441.94,373.4Zm28.45-47.78a46.13,46.13,0,0,0-3.82-8.53c-.21-.36-.42-.71-.64-1.06q3.74-4.09,7.06-8.21,2.56-3.18,4.84-6.34a51.69,51.69,0,0,1,3.87,11A113.46,113.46,0,0,1,470.39,325.62Zm8.38-25.44a117.75,117.75,0,0,0,8.82-14.5,48,48,0,0,1,2.87,11.67A74.6,74.6,0,0,1,482.79,311,53.5,53.5,0,0,0,478.77,300.18ZM492.61,244a44,44,0,0,1,.84,20.65,51.78,51.78,0,0,0-4.9-10,85.51,85.51,0,0,0,2.3-10.59c.19-1.25.33-2.48.45-3.69C491.8,241.52,492.24,242.75,492.61,244Zm-6.89-29.5a44.05,44.05,0,0,1,4.4,20.2,51.89,51.89,0,0,0-6.56-9,83.21,83.21,0,0,0,.42-10.81c0-1.28-.1-2.54-.2-3.77C484.48,212.19,485.13,213.33,485.72,214.48Zm-11.92-27.8a43.9,43.9,0,0,1,7.83,19.06,51.3,51.3,0,0,0-8-7.75,82.6,82.6,0,0,0-1.45-10.71c-.25-1.22-.53-2.43-.84-3.6C472.19,184.65,473,185.65,473.8,186.68Zm-126.16,58c13.43-31.16,23.88-53.59,34.43-69.11,10.71-15.76,21.26-23.82,34.19-26.13,14.26-2.54,30.72,2.21,41,11.83a44,44,0,0,1,11,17.46,51.65,51.65,0,0,0-10.38-6.83,50.34,50.34,0,0,0-22.38-5.44c-13.55,0-25.65,6.26-39.23,20.21-13.18,13.55-27.4,33.89-46.07,62.31q-6.65,10.11-12.66,19.47Q342.31,257.1,347.64,244.72Zm-98.78-83.56c6.4,17.51,18.36,40,34.91,71,6.15,11.55,12.75,23.95,19.86,37.56-8.76-11.36-16.89-21.76-24.49-31.47-21.66-27.69-37.32-47.69-46.61-63.74C223.53,159,221,147.9,224.25,138c4.51-3.22,8.39-5.74,11.27-7.52l-.29-.47c3.92-2.18,7.64-4.09,11.06-5.76C242.06,133.51,242.9,144.86,248.86,161.16Zm2-41.75c.34-.44.69-.88,1-1.29,6.3-2.2,12.54-4,18.54-5.46C264.57,114.39,257.91,116.61,250.84,119.41Zm11-8.7a66.79,66.79,0,0,1,6.29-2.71c20.13-5,40.57-5.06,58.26-3.14C309.46,103.85,285.75,104.27,261.82,110.71Zm52.62-8.23a168.81,168.81,0,0,0-35.3,1.81l.36-.11,0,0c1.36-.43,2.71-.83,4.06-1.2,25.09-4.47,50.12-.65,70.76,5.3A220.93,220.93,0,0,0,314.44,102.48Zm67,14a220.84,220.84,0,0,0-38-12.51,164.1,164.1,0,0,0-42.16-4.27C330.9,96.6,359.24,105.62,381.43,116.44ZM253.67,417.85c-11.34,1.57-20.25-4.07-32.58-11.88l-.11-.07c-3.12-2-6.08-4.09-8.9-6.3,5.12,3.43,10.33,5.57,16.64,5.81l1.17,0a30.26,30.26,0,0,0,16.48-5c3,4.09,6.12,7.95,9.26,11.54q2,2.28,4,4.4A27.18,27.18,0,0,1,253.67,417.85Zm61.42,24.52c-16.45,2-35.07-7.05-53-25.51a33.19,33.19,0,0,0,8.27-5.58q5.55,5.28,11.14,9.79c11.63,9.37,23,15.95,33.88,19.56,1.19.4,2.38.76,3.55,1.08C317.65,442,316.37,442.22,315.09,442.37Zm30.25-1.68a43.91,43.91,0,0,1-20.67.83,51,51,0,0,0,10.07-4.92,81.88,81.88,0,0,0,10.58,2.3c1.26.19,2.51.34,3.73.46C347.83,439.86,346.59,440.31,345.34,440.69Zm29.49-6.92a43.85,43.85,0,0,1-20.16,4.4,51,51,0,0,0,9-6.54,84,84,0,0,0,8.68.46q1.08,0,2.13,0c1.26,0,2.5-.1,3.72-.2C377.09,432.55,376,433.19,374.83,433.77Zm27.8-11.9a43.87,43.87,0,0,1-19.09,7.85,52.07,52.07,0,0,0,7.77-8.06,83,83,0,0,0,10.75-1.46q1.85-.37,3.6-.84A38,38,0,0,1,402.63,421.87ZM428,405.28a43.88,43.88,0,0,1-17.47,11,51,51,0,0,0,6.26-9.27,82.85,82.85,0,0,0,10.3-3.3c1.19-.46,2.34-1,3.46-1.47Q429.37,403.86,428,405.28Zm22.08-20.73a44,44,0,0,1-15.25,13.89,51.36,51.36,0,0,0,4.52-10.17,83.41,83.41,0,0,0,9.56-5q1.62-1,3.12-2A38.05,38.05,0,0,1,450.11,384.55Zm18.13-24.22a43.79,43.79,0,0,1-12.62,16.34,51.25,51.25,0,0,0,2.71-10.86,83.38,83.38,0,0,0,8.56-6.62c.94-.84,1.85-1.69,2.71-2.55A37.71,37.71,0,0,1,468.24,360.33Zm13.68-27.05a44,44,0,0,1-9.61,18.3,51.29,51.29,0,0,0,.77-11.11,85.64,85.64,0,0,0,7.31-8q1.17-1.49,2.22-3Q482.36,331.41,481.92,333.28Zm8.77-29A43.9,43.9,0,0,1,484.41,324a51.52,51.52,0,0,0-1.18-11.14,81.93,81.93,0,0,0,5.79-9.17c.61-1.11,1.16-2.21,1.69-3.32C490.77,301.69,490.76,303,490.69,304.31Z"/><path class="cls-2" d="M548.35,254.45v-78.1h14.71v78.1Zm6.44,0V240.27h24.92c3.37,0,6-.82,7.82-2.45a8.66,8.66,0,0,0,2.76-6.84v-.17a8.73,8.73,0,0,0-2.76-6.9c-1.85-1.63-4.45-2.44-7.82-2.44H554.79V207.29h24.92c3,0,5.4-.77,7.07-2.31a8.43,8.43,0,0,0,2.49-6.5,7.22,7.22,0,0,0-2.49-5.88c-1.67-1.38-4-2.07-7.07-2.07H554.79V176.35H580.2q11.38,0,17.64,5.53t6.26,15.63a16.21,16.21,0,0,1-4,11.26q-4,4.42-11.31,5.66,7.79,1.08,12.06,5.94T605.12,233v.16q0,10.15-6.29,15.71t-17.72,5.56Z"/><path class="cls-2" d="M610.22,254.45l29.86-78.1h9.35l29.86,78.1H663.45l-18.69-53.34-18.69,53.34Zm14.34-12.52V227.75h41.09v14.18Z"/><path class="cls-2" d="M711.31,255.25A31.72,31.72,0,0,1,696,251.84a22.79,22.79,0,0,1-9.64-9.93,34.37,34.37,0,0,1-3.33-15.77V204.71q0-9.28,3.33-15.79A23.08,23.08,0,0,1,696,179a31.61,31.61,0,0,1,15.29-3.43,27,27,0,0,1,13.18,3.16,26.08,26.08,0,0,1,9.56,9.19,39.47,39.47,0,0,1,5.24,14.61H724a19.5,19.5,0,0,0-2.66-6.63,12.88,12.88,0,0,0-4.35-4.17,11.47,11.47,0,0,0-5.72-1.45q-6.18,0-9.59,3.79t-3.41,10.66v21.43q0,6.88,3.41,10.64t9.59,3.76a11.34,11.34,0,0,0,8.16-3.2,17.11,17.11,0,0,0,4.57-9.05h15.25A40.47,40.47,0,0,1,734,242.87a26,26,0,0,1-9.54,9.21A26.69,26.69,0,0,1,711.31,255.25Z"/><path class="cls-2" d="M751.64,254.45v-78.1h14.72v78.1Zm10.74-11.39-1.88-19.12,31.32-47.59h18.53Zm33.79,11.39L773.5,214.92l12.68-8,27.44,47.54Z"/><path class="cls-2" d="M821.14,219.37h38.25v14.18H821.14Z"/><path class="cls-2" d="M548.35,386.45v-78.1h14.71v78.1Zm5.31-63.92V308.35h47v14.18Zm0,32.23V340.58h41.09v14.18Zm0,31.69V372.27h47v14.18Z"/><path class="cls-2" d="M614.09,386.39v-78h18l29.06,59.84-1.29,1.39V308.35h14.07v78h-18.1l-29-58.92,1.29-1.39v60.31Z"/><path class="cls-2" d="M691.11,386.45v-78.1h14.72v78.1Zm7.41,0V372.27h18.75q7.25,0,11.22-3.52t4-9.86v-23q0-6.41-4-9.89t-11.22-3.49H698.52V308.35H717q14.71,0,22.74,7.33t8,20.65v22.13a30,30,0,0,1-3.44,14.64A23.69,23.69,0,0,1,734,382.93q-6.86,3.51-17.11,3.52Z"/></svg>